<mxfile host="app.diagrams.net" modified="2022-08-30T05:03:19.236Z" agent="5.0 (X11)" etag="EzpmLdRtFZ_DVrq6Kw1L" version="20.2.7" type="github">
  <diagram id="u4W9TKTHeoKNtBXba0fy" name="Page-1">
    <mxGraphModel dx="2272" dy="751" grid="1" gridSize="10" guides="1" tooltips="1" connect="1" arrows="1" fold="1" page="1" pageScale="1" pageWidth="850" pageHeight="1100" math="0" shadow="0">
      <root>
        <mxCell id="0" />
        <mxCell id="1" parent="0" />
        <mxCell id="r903otCJwkfZVRWQ2H8E-6" value="" style="edgeStyle=orthogonalEdgeStyle;rounded=0;orthogonalLoop=1;jettySize=auto;html=1;" edge="1" parent="1" source="r903otCJwkfZVRWQ2H8E-2" target="r903otCJwkfZVRWQ2H8E-5">
          <mxGeometry relative="1" as="geometry" />
        </mxCell>
        <mxCell id="r903otCJwkfZVRWQ2H8E-8" value="" style="edgeStyle=orthogonalEdgeStyle;rounded=0;orthogonalLoop=1;jettySize=auto;html=1;" edge="1" parent="1" source="r903otCJwkfZVRWQ2H8E-2" target="r903otCJwkfZVRWQ2H8E-7">
          <mxGeometry relative="1" as="geometry" />
        </mxCell>
        <mxCell id="r903otCJwkfZVRWQ2H8E-10" value="" style="edgeStyle=orthogonalEdgeStyle;rounded=0;orthogonalLoop=1;jettySize=auto;html=1;" edge="1" parent="1" source="r903otCJwkfZVRWQ2H8E-2" target="r903otCJwkfZVRWQ2H8E-9">
          <mxGeometry relative="1" as="geometry" />
        </mxCell>
        <mxCell id="r903otCJwkfZVRWQ2H8E-12" value="" style="edgeStyle=orthogonalEdgeStyle;rounded=0;orthogonalLoop=1;jettySize=auto;html=1;" edge="1" parent="1" source="r903otCJwkfZVRWQ2H8E-2" target="r903otCJwkfZVRWQ2H8E-11">
          <mxGeometry relative="1" as="geometry" />
        </mxCell>
        <mxCell id="r903otCJwkfZVRWQ2H8E-13" value="" style="edgeStyle=orthogonalEdgeStyle;rounded=0;orthogonalLoop=1;jettySize=auto;html=1;" edge="1" parent="1" source="r903otCJwkfZVRWQ2H8E-2" target="r903otCJwkfZVRWQ2H8E-11">
          <mxGeometry relative="1" as="geometry" />
        </mxCell>
        <mxCell id="r903otCJwkfZVRWQ2H8E-16" value="" style="edgeStyle=orthogonalEdgeStyle;rounded=0;orthogonalLoop=1;jettySize=auto;html=1;" edge="1" parent="1" source="r903otCJwkfZVRWQ2H8E-2" target="r903otCJwkfZVRWQ2H8E-11">
          <mxGeometry relative="1" as="geometry" />
        </mxCell>
        <mxCell id="r903otCJwkfZVRWQ2H8E-18" value="" style="edgeStyle=orthogonalEdgeStyle;rounded=0;orthogonalLoop=1;jettySize=auto;html=1;" edge="1" parent="1" source="r903otCJwkfZVRWQ2H8E-2" target="r903otCJwkfZVRWQ2H8E-17">
          <mxGeometry relative="1" as="geometry" />
        </mxCell>
        <mxCell id="r903otCJwkfZVRWQ2H8E-2" value="GIP" style="rounded=0;whiteSpace=wrap;html=1;fillColor=#e51400;fontColor=#ffffff;strokeColor=#B20000;" vertex="1" parent="1">
          <mxGeometry x="320" y="300" width="120" height="60" as="geometry" />
        </mxCell>
        <mxCell id="r903otCJwkfZVRWQ2H8E-31" value="" style="edgeStyle=orthogonalEdgeStyle;rounded=0;orthogonalLoop=1;jettySize=auto;html=1;" edge="1" parent="1" source="r903otCJwkfZVRWQ2H8E-5" target="r903otCJwkfZVRWQ2H8E-30">
          <mxGeometry relative="1" as="geometry" />
        </mxCell>
        <mxCell id="r903otCJwkfZVRWQ2H8E-34" value="" style="edgeStyle=orthogonalEdgeStyle;rounded=0;orthogonalLoop=1;jettySize=auto;html=1;" edge="1" parent="1" source="r903otCJwkfZVRWQ2H8E-5" target="r903otCJwkfZVRWQ2H8E-33">
          <mxGeometry relative="1" as="geometry" />
        </mxCell>
        <mxCell id="r903otCJwkfZVRWQ2H8E-5" value="&lt;div&gt;Ideologia&lt;/div&gt;" style="rounded=0;whiteSpace=wrap;html=1;fillColor=rgb(255, 255, 255);strokeColor=rgb(0, 0, 0);fontColor=rgb(0, 0, 0);" vertex="1" parent="1">
          <mxGeometry x="320" y="450" width="120" height="60" as="geometry" />
        </mxCell>
        <mxCell id="r903otCJwkfZVRWQ2H8E-7" value="Perversion" style="rounded=0;whiteSpace=wrap;html=1;fillColor=rgb(255, 255, 255);strokeColor=rgb(0, 0, 0);fontColor=rgb(0, 0, 0);" vertex="1" parent="1">
          <mxGeometry x="540" y="300" width="120" height="60" as="geometry" />
        </mxCell>
        <mxCell id="r903otCJwkfZVRWQ2H8E-24" value="" style="edgeStyle=orthogonalEdgeStyle;rounded=0;orthogonalLoop=1;jettySize=auto;html=1;" edge="1" parent="1" source="r903otCJwkfZVRWQ2H8E-9" target="r903otCJwkfZVRWQ2H8E-23">
          <mxGeometry relative="1" as="geometry" />
        </mxCell>
        <mxCell id="r903otCJwkfZVRWQ2H8E-26" value="" style="edgeStyle=orthogonalEdgeStyle;rounded=0;orthogonalLoop=1;jettySize=auto;html=1;" edge="1" parent="1" source="r903otCJwkfZVRWQ2H8E-9" target="r903otCJwkfZVRWQ2H8E-25">
          <mxGeometry relative="1" as="geometry" />
        </mxCell>
        <mxCell id="r903otCJwkfZVRWQ2H8E-28" value="" style="edgeStyle=orthogonalEdgeStyle;rounded=0;orthogonalLoop=1;jettySize=auto;html=1;" edge="1" parent="1" source="r903otCJwkfZVRWQ2H8E-9" target="r903otCJwkfZVRWQ2H8E-27">
          <mxGeometry relative="1" as="geometry" />
        </mxCell>
        <mxCell id="r903otCJwkfZVRWQ2H8E-9" value="&lt;div&gt;Moralidad&lt;/div&gt;" style="rounded=0;whiteSpace=wrap;html=1;fillColor=rgb(255, 255, 255);strokeColor=rgb(0, 0, 0);fontColor=rgb(0, 0, 0);" vertex="1" parent="1">
          <mxGeometry x="320" y="170" width="120" height="60" as="geometry" />
        </mxCell>
        <mxCell id="r903otCJwkfZVRWQ2H8E-20" value="" style="edgeStyle=orthogonalEdgeStyle;rounded=0;orthogonalLoop=1;jettySize=auto;html=1;" edge="1" parent="1" source="r903otCJwkfZVRWQ2H8E-11" target="r903otCJwkfZVRWQ2H8E-19">
          <mxGeometry relative="1" as="geometry" />
        </mxCell>
        <mxCell id="r903otCJwkfZVRWQ2H8E-22" value="" style="edgeStyle=orthogonalEdgeStyle;rounded=0;orthogonalLoop=1;jettySize=auto;html=1;" edge="1" parent="1" source="r903otCJwkfZVRWQ2H8E-11" target="r903otCJwkfZVRWQ2H8E-21">
          <mxGeometry relative="1" as="geometry" />
        </mxCell>
        <mxCell id="r903otCJwkfZVRWQ2H8E-11" value="Naturaleza" style="rounded=0;whiteSpace=wrap;html=1;fillColor=rgb(255, 255, 255);strokeColor=rgb(0, 0, 0);fontColor=rgb(0, 0, 0);" vertex="1" parent="1">
          <mxGeometry x="110" y="300" width="120" height="60" as="geometry" />
        </mxCell>
        <mxCell id="r903otCJwkfZVRWQ2H8E-17" value="&lt;div&gt;Orden&lt;/div&gt;" style="rounded=0;whiteSpace=wrap;html=1;fillColor=rgb(255, 255, 255);strokeColor=rgb(0, 0, 0);fontColor=rgb(0, 0, 0);" vertex="1" parent="1">
          <mxGeometry x="80" y="390" width="120" height="60" as="geometry" />
        </mxCell>
        <mxCell id="r903otCJwkfZVRWQ2H8E-19" value="Imperfecta" style="rounded=0;whiteSpace=wrap;html=1;fillColor=rgb(255, 255, 255);strokeColor=rgb(0, 0, 0);fontColor=rgb(0, 0, 0);" vertex="1" parent="1">
          <mxGeometry x="60" y="200" width="120" height="60" as="geometry" />
        </mxCell>
        <mxCell id="r903otCJwkfZVRWQ2H8E-21" value="Funcional" style="rounded=0;whiteSpace=wrap;html=1;fillColor=rgb(255, 255, 255);strokeColor=rgb(0, 0, 0);fontColor=rgb(0, 0, 0);" vertex="1" parent="1">
          <mxGeometry x="-60" y="300" width="120" height="60" as="geometry" />
        </mxCell>
        <mxCell id="r903otCJwkfZVRWQ2H8E-23" value="Dibujar linea" style="rounded=0;whiteSpace=wrap;html=1;fillColor=rgb(255, 255, 255);strokeColor=rgb(0, 0, 0);fontColor=rgb(0, 0, 0);" vertex="1" parent="1">
          <mxGeometry x="320" y="70" width="120" height="60" as="geometry" />
        </mxCell>
        <mxCell id="r903otCJwkfZVRWQ2H8E-25" value="Empatia" style="rounded=0;whiteSpace=wrap;html=1;fillColor=rgb(255, 255, 255);strokeColor=rgb(0, 0, 0);fontColor=rgb(0, 0, 0);" vertex="1" parent="1">
          <mxGeometry x="490" y="180" width="120" height="60" as="geometry" />
        </mxCell>
        <mxCell id="r903otCJwkfZVRWQ2H8E-27" value="&lt;div&gt;Cooperacion&lt;/div&gt;" style="rounded=0;whiteSpace=wrap;html=1;fillColor=rgb(255, 255, 255);strokeColor=rgb(0, 0, 0);fontColor=rgb(0, 0, 0);" vertex="1" parent="1">
          <mxGeometry x="160" y="100" width="120" height="60" as="geometry" />
        </mxCell>
        <mxCell id="r903otCJwkfZVRWQ2H8E-30" value="&lt;div&gt;Dogma&lt;/div&gt;" style="rounded=0;whiteSpace=wrap;html=1;fillColor=rgb(255, 255, 255);strokeColor=rgb(0, 0, 0);fontColor=rgb(0, 0, 0);" vertex="1" parent="1">
          <mxGeometry x="520" y="450" width="120" height="60" as="geometry" />
        </mxCell>
        <mxCell id="r903otCJwkfZVRWQ2H8E-33" value="Modelo" style="rounded=0;whiteSpace=wrap;html=1;fillColor=rgb(255, 255, 255);strokeColor=rgb(0, 0, 0);fontColor=rgb(0, 0, 0);" vertex="1" parent="1">
          <mxGeometry x="140" y="470" width="120" height="60" as="geometry" />
        </mxCell>
      </root>
    </mxGraphModel>
  </diagram>
</mxfile>
